HIERARCHY
ROOT hip
{
  OFFSET 0 0 0
  CHANNELS 6 Xposition Yposition Zposition Zrotation Yrotation Xrotation
  JOINT abdomen
  {
    OFFSET 0 20.6881 -0.73152
    CHANNELS 3 Zrotation Xrotation Yrotation
    JOINT chest
    {
      OFFSET 0 11.7043 -0.48768
      CHANNELS 3 Zrotation Xrotation Yrotation
      JOINT neck
      {
        OFFSET 0 22.1894 -2.19456
        CHANNELS 3 Zrotation Xrotation Yrotation
        JOINT head
        {
          OFFSET -0.24384 7.07133 1.2192
          CHANNELS 3 Zrotation Xrotation Yrotation
          JOINT leftEye
          {
            OFFSET 4.14528 8.04674 8.04672
            CHANNELS 3 Zrotation Xrotation Yrotation
            End Site
            {
              OFFSET 1 0 0
            }
          }
          JOINT rightEye
          {
            OFFSET -3.6576 8.04674 8.04672
            CHANNELS 3 Zrotation Xrotation Yrotation
            End Site
            {
              OFFSET 1 0 0
            }
          }
        }
      }
      JOINT rCollar
      {
        OFFSET -2.68224 19.2634 -4.8768
        CHANNELS 3 Zrotation Xrotation Yrotation
        JOINT rShldr
        {
          OFFSET -8.77824 -1.95073 1.46304
          CHANNELS 3 Zrotation Xrotation Yrotation
          JOINT rForeArm
          {
            OFFSET -28.1742 -1.7115 0.48768
            CHANNELS 3 Zrotation Xrotation Yrotation
            JOINT rHand
            {
              OFFSET -22.5879 0.773209 7.07136
              CHANNELS 3 Zrotation Xrotation Yrotation
              JOINT rThumb1
              {
                OFFSET -1.2192 -0.487915 3.41376
                CHANNELS 3 Zrotation Xrotation Yrotation
                JOINT rThumb2
                {
                  OFFSET -3.37035 -0.52449 3.41376
                  CHANNELS 3 Zrotation Xrotation Yrotation
                  End Site
                  {
                    OFFSET -1.78271 -1.18214 1.43049
                  }
                }
              }
              JOINT rIndex1
              {
                OFFSET -7.75947 0.938293 5.60832
                CHANNELS 3 Zrotation Xrotation Yrotation
                JOINT rIndex2
                {
                  OFFSET -2.54057 -0.884171 1.56538
                  CHANNELS 3 Zrotation Xrotation Yrotation
                  End Site
                  {
                    OFFSET -1.62519 -0.234802 1.16502
                  }
                }
              }
              JOINT rMid1
              {
                OFFSET -8.24714 1.18213 3.41376
                CHANNELS 3 Zrotation Xrotation Yrotation
                JOINT rMid2
                {
                  OFFSET -3.10165 -0.590103 1.0647
                  CHANNELS 3 Zrotation Xrotation Yrotation
                  End Site
                  {
                    OFFSET -2.48547 -0.328903 0.83742
                  }
                }
              }
              JOINT rRing1
              {
                OFFSET -8.82822 0.546677 1.51678
                CHANNELS 3 Zrotation Xrotation Yrotation
                JOINT rRing2
                {
                  OFFSET -2.60934 -0.819778 -0.0198488
                  CHANNELS 3 Zrotation Xrotation Yrotation
                  End Site
                  {
                    OFFSET -2.33842 -0.294052 0.168128
                  }
                }
              }
              JOINT rPinky1
              {
                OFFSET -8.27202 -0.0477905 -0.4584
                CHANNELS 3 Zrotation Xrotation Yrotation
                JOINT rPinky2
                {
                  OFFSET -1.82734 -0.647385 -0.700984
                  CHANNELS 3 Zrotation Xrotation Yrotation
                  End Site
                  {
                    OFFSET -1.69225 -0.51767 -0.607171
                  }
                }
              }
            }
          }
        }
      }
      JOINT lCollar
      {
        OFFSET 2.68224 19.2634 -4.8768
        CHANNELS 3 Zrotation Xrotation Yrotation
        JOINT lShldr
        {
          OFFSET 8.77824 -1.95073 1.46304
          CHANNELS 3 Zrotation Xrotation Yrotation
          JOINT lForeArm
          {
            OFFSET 28.1742 -1.7115 0.48768
            CHANNELS 3 Zrotation Xrotation Yrotation
            JOINT lHand
            {
              OFFSET 22.5879 0.773209 7.07136
              CHANNELS 3 Zrotation Xrotation Yrotation
              JOINT lThumb1
              {
                OFFSET 1.2192 -0.487915 3.41376
                CHANNELS 3 Zrotation Xrotation Yrotation
                JOINT lThumb2
                {
                  OFFSET 3.37035 -0.52449 3.41376
                  CHANNELS 3 Zrotation Xrotation Yrotation
                  End Site
                  {
                    OFFSET 1.78271 -1.18214 1.43049
                  }
                }
              }
              JOINT lIndex1
              {
                OFFSET 7.75947 0.938293 5.60832
                CHANNELS 3 Zrotation Xrotation Yrotation
                JOINT lIndex2
                {
                  OFFSET 2.54057 -0.884171 1.56538
                  CHANNELS 3 Zrotation Xrotation Yrotation
                  End Site
                  {
                    OFFSET 1.62519 -0.234802 1.16502
                  }
                }
              }
              JOINT lMid1
              {
                OFFSET 8.24714 1.18213 3.41376
                CHANNELS 3 Zrotation Xrotation Yrotation
                JOINT lMid2
                {
                  OFFSET 3.10165 -0.590103 1.0647
                  CHANNELS 3 Zrotation Xrotation Yrotation
                  End Site
                  {
                    OFFSET 2.48547 -0.328903 0.83742
                  }
                }
              }
              JOINT lRing1
              {
                OFFSET 8.82822 0.546677 1.51678
                CHANNELS 3 Zrotation Xrotation Yrotation
                JOINT lRing2
                {
                  OFFSET 2.60934 -0.819778 -0.0198488
                  CHANNELS 3 Zrotation Xrotation Yrotation
                  End Site
                  {
                    OFFSET 2.33842 -0.294052 0.168128
                  }
                }
              }
              JOINT lPinky1
              {
                OFFSET 8.27202 -0.0477905 -0.4584
                CHANNELS 3 Zrotation Xrotation Yrotation
                JOINT lPinky2
                {
                  OFFSET 1.82734 -0.647385 -0.700984
                  CHANNELS 3 Zrotation Xrotation Yrotation
                  End Site
                  {
                    OFFSET 1.69225 -0.51767 -0.607171
                  }
                }
              }
            }
          }
        }
      }
    }
  }
  JOINT rButtock
  {
    OFFSET -8.77824 4.35084 1.2192
    CHANNELS 3 Zrotation Xrotation Yrotation
    JOINT rThigh
    {
      OFFSET 0 -1.70687 -2.19456
      CHANNELS 3 Zrotation Xrotation Yrotation
      JOINT rShin
      {
        OFFSET 0 -36.8199 0.73152
        CHANNELS 3 Zrotation Xrotation Yrotation
        JOINT rFoot
        {
          OFFSET 0.73152 -45.1104 -5.12064
          CHANNELS 3 Zrotation Xrotation Yrotation
          End Site
          {
            OFFSET -1.1221 -3.69964 12.103
          }
        }
      }
    }
  }
  JOINT lButtock
  {
    OFFSET 8.77824 4.35084 1.2192
    CHANNELS 3 Zrotation Xrotation Yrotation
    JOINT lThigh
    {
      OFFSET 0 -1.70687 -2.19456
      CHANNELS 3 Zrotation Xrotation Yrotation
      JOINT lShin
      {
        OFFSET 0 -36.8199 0.73152
        CHANNELS 3 Zrotation Xrotation Yrotation
        JOINT lFoot
        {
          OFFSET -0.73152 -45.1104 -5.12064
          CHANNELS 3 Zrotation Xrotation Yrotation
          End Site
          {
            OFFSET 1.1221 -3.69964 12.103
          }
        }
      }
    }
  }
}
MOTION
Frames:	7
Frame Time:	0.03333
0.0 0.0 0.0 0.0 0.0 0.0 0.0 0.0 0.0 0.0 0.0 0.0 0.0 0.0 0.0 0.0 0.0 0.0 0.0 0.0 0.0 0.0 0.0 0.0 0.0 0.0 0.0 0.0 0.0 0.0 0.0 0.0 0.0 0.0 0.0 0.0 0.0 0.0 0.0 0.0 0.0 0.0 0.0 0.0 0.0 0.0 0.0 0.0 0.0 0.0 0.0 0.0 0.0 0.0 0.0 0.0 0.0 0.0 0.0 0.0 0.0 0.0 0.0 0.0 0.0 0.0 0.0 0.0 0.0 0.0 0.0 0.0 0.0 0.0 0.0 0.0 0.0 0.0 0.0 0.0 0.0 0.0 0.0 0.0 0.0 0.0 0.0 0.0 0.0 0.0 0.0 0.0 0.0 0.0 0.0 0.0 0.0 0.0 0.0 0.0 0.0 0.0 0.0 0.0 0.0 0.0 0.0 0.0 0.0 0.0 0.0 0.0 0.0 0.0 0.0 0.0 0.0 0.0 0.0 0.0 0.0 0.0 0.0 0.0 0.0 0.0 0.0 0.0 0.0 0.0 0.0 0.0
0.0005 61.9914 -0.0252 -0.262176 -28.339949 -0.851406 -0.508888 3.211749 0.007341 2.090986 8.349347 -8.802516 -10.365813 -10.802772 -74.451225 -42.093601 25.762239 -103.535752 175.155831 0.084106 -1.988185 -32.254726 -0.166751 0.576685 60.243746 38.553816 18.5695 13.187659 -10.49753 7.467188 57.046459 79.918387 105.720424 179.939099 -4.634698 69.973912 -84.093631 -8.200856 42.409437 136.906667 -20.079911 -100.022861 -175.406209 67.901732 -56.547209 -42.216616 56.855587 152.951656 -36.771063 29.500467 -112.821768 -97.738875 -68.902073 -157.076328 81.769805 14.588342 -77.992587 -71.245461 82.363186 90.469337 -145.731213 27.436057 -71.186167 -151.214932 53.015786 -152.111319 88.027743 -55.195475 -167.316819 -90.497333 -86.12891 -79.792057 -178.904259 -39.883834 27.529845 -2.560816 27.209669 30.354315 174.937948 2.536645 -87.142179 6.508101 -20.170037 11.114589 16.776618 -52.827203 -5.45386 61.483724 -84.749587 169.282961 10.173756 9.054983 -17.856901 171.992327 1.161065 -155.955805 -90.114409 -25.955384 89.00352 -176.166671 -0.063474 -168.562474 57.176507 51.484384 91.879944 -12.649283 -10.112006 6.807746 -57.76531 -2.493732 -84.218222 5.177789 59.344891 -4.40492 -3.459713 3.908524 -144.111042 68.343978 -24.480841 -101.203893 -0.246386 -48.847236 0.022948 1.053839 50.332615 -0.797879 6.944625 0.545994 89.697574 62.557579 63.714432 -77.020707
-1.1242999999999999 54.4575 1.1903000000000001 -56.633486 81.262827 -53.310658 4.089783 18.346666 167.201963 -2.907464 9.301688 -151.018615 13.913442 17.900215 79.815951 -35.068508 4.228785 -61.459695 -36.349215 -2.172304 6.610431 -8.862875 0.691019 -8.898808 -120.645554 -87.640801 -137.126325 83.02166 45.675276 -80.906844 0.179771 42.313325 118.859562 -9.251639 2.720399 -6.531311 -75.640587 47.698924 41.272253 124.42092 -58.915582 57.029691 -162.485646 2.220872 131.864353 165.935097 -59.480791 114.928584 -23.92192 57.646141 15.647916 -154.390891 45.625343 118.966212 -81.404113 68.791749 88.454025 2.038216 29.790532 -0.663627 -15.930423 -17.615494 -0.913596 -124.918597 -23.631758 -157.020898 -4.996782 -13.529988 -1.083099 -59.11993 0.524544 -22.629149 177.93582 19.713752 -49.00637 -174.856502 -1.523636 -137.729712 -0.05149 5.708867 0.361314 79.159291 -76.600544 142.749125 148.162312 -73.545213 -145.810805 -16.210562 29.278547 -2.129154 147.168206 37.159235 -120.76743 175.362304 10.129844 -152.901134 104.170207 46.773978 -109.825248 141.253478 -12.955397 -175.975472 144.180161 -12.550788 54.38066 -20.770566 -27.881274 90.018295 41.817475 -1.254897 18.302147 -84.112873 -4.274147 -44.817704 -67.551568 65.292236 -23.719744 174.51399 -22.181818 -89.811213 6.863819 6.273598 -9.602307 83.689826 -48.432794 174.609649 90.751036 -14.882511 -8.359504 -7.472469 -56.592884 -100.271493
-2.2202 47.2695 1.4116 -22.672583 78.391144 -15.55664 2.043586 25.492833 -0.802977 -2.448773 -20.622081 14.795136 6.976683 19.880834 6.78672 -4.746403 -36.048221 19.573016 -13.772881 2.842663 -23.218964 -53.123776 -8.675708 17.255428 2.04044 -36.677257 -3.249138 58.951487 16.634987 -19.394894 -7.074975 42.241649 126.368717 -7.364954 3.377379 -1.283796 4.272345 -12.452361 -6.765784 6.375473 -15.2788 -14.78808 -156.697909 -13.452403 126.981286 4.263162 14.533178 31.296893 -2.958717 68.457255 13.925766 -35.598788 -79.872106 -42.705204 -87.936377 68.857537 90.637596 3.700969 -26.450793 3.47112 1.917253 -26.20132 -3.564156 -147.289356 -0.311215 -147.942356 51.263123 61.10557 -50.820731 1.859814 -6.610974 -59.219853 26.365165 47.992448 115.232643 -170.472726 -12.574301 -143.822209 2.831526 2.835859 3.610457 -10.18662 -35.474433 42.530858 153.717131 -71.494781 -152.575964 130.770806 -29.863934 -101.958893 10.22098 23.777853 -19.12771 -162.575994 -29.120996 173.132085 136.465251 -10.1291 -161.563589 130.23439 -21.446375 -138.241948 159.794206 35.701048 157.711998 -33.02432 38.482557 -7.140058 19.789691 17.304965 -0.0 -95.460827 -37.495408 -180.0 -97.122079 -26.055648 97.995722 85.082396 -33.549924 10.557229 -80.253797 56.711378 -45.866289 179.557054 -0.911835 -0.015848 -122.051012 56.487464 -129.309825 -51.362266 -42.81429 -140.813152
-2.3466 40.7844 1.8509000000000002 -18.603833 71.871694 -8.704844 1.832229 20.313252 -0.564639 -1.520992 -17.313819 18.777123 -3.815588 19.835581 -10.811094 17.436362 -29.444894 46.398233 -3.963562 -0.025538 0.738025 146.075216 -18.486153 56.163299 -25.906911 59.624931 26.827294 57.274316 -18.24136 65.546598 104.102093 42.952037 53.942632 -144.392056 62.261448 113.819258 -15.609226 -1.451811 6.181405 -128.102384 -67.236114 133.46031 -44.194328 34.593924 43.623858 -163.413572 17.394267 167.284622 -149.086555 -24.598903 133.283728 -40.873443 46.471822 46.317641 -90.124781 -79.246818 -89.947584 -127.9828 31.580882 -171.974774 -66.922657 -70.292861 -79.790794 -3.775922 -0.557829 9.48068 15.146588 40.785995 -19.544009 -103.601203 -35.412826 -73.608961 -173.753665 24.623091 -40.148943 174.076126 22.24677 -147.239812 0.388935 7.816643 5.524625 139.464517 -35.885012 -122.023182 144.246 -22.537641 -144.879279 178.277876 78.162502 168.341991 140.896176 -66.246724 -171.192174 170.057872 -30.785943 -91.815411 -11.795851 -1.493065 -2.149844 24.924234 32.566432 10.981191 45.939866 -55.711947 18.542846 148.583622 -23.771834 94.141196 -136.02792 52.83205 -13.072533 107.414387 -29.315107 30.851686 149.115674 68.089394 125.524144 33.340178 16.333305 87.914817 87.009244 38.749166 44.755395 -99.40843 -60.228778 79.832153 109.412688 -19.466415 -59.935025 -118.414312 2.892838 4.009651
-2.21 38.3386 2.1822 -12.87067 68.366609 -3.878504 -2.034067 17.637471 0.0 -0.833648 -14.490239 23.420179 -11.410096 24.40495 -72.430476 37.328044 5.057851 104.309669 -10.100609 -2.11327 23.577232 38.493287 13.983692 38.708 -60.429455 -80.575177 -84.262926 9.284135 -28.597072 -50.929851 80.239544 -42.485601 -96.874729 -172.554669 35.579462 134.539606 175.281551 -7.066236 79.413409 -64.310226 -19.379904 -3.637943 -19.187457 33.214708 10.223128 38.274769 -67.208462 40.57397 -160.233719 19.154161 133.263684 -170.565282 16.685977 140.182489 -137.61908 36.799303 152.622007 57.464577 59.809926 -52.530549 -158.526335 -29.798105 163.270921 -10.761312 -7.282976 49.624422 -9.55807 -33.017691 -2.484369 -57.952993 16.233387 2.682812 0.100224 -29.569669 -108.057535 4.242697 -12.803971 -4.305787 -12.381853 -1.736056 8.588281 77.876394 36.463815 -55.503742 39.621613 48.728196 -26.133311 82.118601 47.768712 -38.791842 -20.676082 58.041505 15.789707 16.665359 -68.3709 10.243186 140.745129 -0.216817 -178.090403 121.075697 7.142524 -160.254041 102.333473 -59.835098 83.323821 71.805638 -7.776547 30.23686 14.623102 15.303811 -0.0 -105.038923 -36.672889 -0.0 106.991959 15.327795 -131.791503 98.907115 19.98442 9.229777 -1.131868 11.762391 1.655794 122.713211 -46.349277 -139.624532 115.386057 -18.76587 -168.540204 152.945642 60.198557 -64.489345
-2.109 39.3557 2.096 -10.574449 66.402975 -1.67671 -2.271561 15.268451 -118.987622 13.032445 4.902046 144.838348 -14.592688 24.160618 -70.568739 35.062312 9.868665 104.793085 -39.997715 -15.820454 41.790466 10.105591 4.407571 47.040738 -25.71001 69.176132 31.970393 73.725504 -31.483888 84.454427 -94.825004 -41.523924 90.659157 77.747702 -69.368429 60.111711 -85.688214 38.520582 48.06988 2.147583 -17.213225 29.46066 -6.135239 7.294571 -17.731732 17.26789 -16.082052 39.79377 -175.277449 -6.261297 138.639361 3.455223 0.925141 6.241305 -140.414333 20.792145 166.65542 47.641214 20.562043 -27.791827 -147.469002 -61.454818 -159.881631 -12.906042 -54.72031 23.997558 82.900717 56.055352 -83.921221 6.396405 -5.315051 -56.238459 6.484435 40.17557 140.250771 168.458759 -3.713018 -147.440083 163.20235 -19.43712 -99.069183 65.742078 -4.798663 -37.543401 44.606239 39.033954 -33.168982 81.276658 35.831845 -66.592472 62.167922 -82.532334 104.53847 168.696423 -37.764114 -129.091738 121.301248 38.628163 -151.798415 106.990561 5.38063 177.055148 149.588178 -22.622337 144.31935 -139.655997 50.789006 161.506024 174.859939 63.490669 5.74015 131.704049 -10.253801 99.013314 104.404994 -9.510592 -69.090047 -112.505869 6.867777 9.368066 -139.090965 53.157216 -19.950537 -145.360602 -25.873983 -80.92036 -116.006407 -1.612789 178.168293 -173.376575 -12.496026 89.474305
